<?xml version="1.0" encoding="UTF-8" standalone="no"?>
<!-- Created with Inkscape (http://www.inkscape.org/) -->

<svg
   xmlns:dc="http://purl.org/dc/elements/1.1/"
   xmlns:cc="http://creativecommons.org/ns#"
   xmlns:rdf="http://www.w3.org/1999/02/22-rdf-syntax-ns#"
   xmlns:svg="http://www.w3.org/2000/svg"
   xmlns="http://www.w3.org/2000/svg"
   xmlns:sodipodi="http://sodipodi.sourceforge.net/DTD/sodipodi-0.dtd"
   xmlns:inkscape="http://www.inkscape.org/namespaces/inkscape"
   width="210mm"
   height="297mm"
   viewBox="0 0 210 297"
   version="1.1"
   id="svg1393"
   inkscape:version="0.92.1 r15371"
   sodipodi:docname="logo.svg">
  <defs
     id="defs1387">
    <clipPath
       clipPathUnits="userSpaceOnUse"
       id="clipPath1696-5-6-5">
      <path
         style="fill:#000000;fill-rule:evenodd;stroke:#000000;stroke-width:0.02793733px;stroke-linecap:butt;stroke-linejoin:miter;stroke-opacity:1"
         d="m 76.809431,34.343782 1.197314,0.359196 2.793733,-0.219509 1.67624,-0.15964 0.658523,-1.277135 1.855836,-0.439016 3.39239,-1.037676 -0.858075,-4.928941 -6.465496,-0.439013 -6.305854,3.751584 z"
         id="path1698-3-1-4"
         inkscape:connector-curvature="0" />
    </clipPath>
    <clipPath
       clipPathUnits="userSpaceOnUse"
       id="clipPath1713-5-8-1">
      <path
         inkscape:connector-curvature="0"
         id="path1715-6-7-5"
         d="m 62.28202,39.452322 2.294853,-0.159641 3.192837,-0.439016 1.157403,-1.117492 5.308093,-1.476689 1.696195,3.971092 -0.172417,35.67273 -17.266533,-0.832051 z"
         style="fill:#000000;fill-rule:evenodd;stroke:#000000;stroke-width:0.02793733px;stroke-linecap:butt;stroke-linejoin:miter;stroke-opacity:1"
         sodipodi:nodetypes="ccccccccc" />
    </clipPath>
  </defs>
  <sodipodi:namedview
     id="base"
     pagecolor="#ffffff"
     bordercolor="#666666"
     borderopacity="1.0"
     inkscape:pageopacity="0.0"
     inkscape:pageshadow="2"
     inkscape:zoom="1.4"
     inkscape:cx="382.37731"
     inkscape:cy="863.73651"
     inkscape:document-units="mm"
     inkscape:current-layer="layer1"
     showgrid="false"
     inkscape:window-width="1920"
     inkscape:window-height="1016"
     inkscape:window-x="0"
     inkscape:window-y="27"
     inkscape:window-maximized="1" />
  <metadata
     id="metadata1390">
    <rdf:RDF>
      <cc:Work
         rdf:about="">
        <dc:format>image/svg+xml</dc:format>
        <dc:type
           rdf:resource="http://purl.org/dc/dcmitype/StillImage" />
        <dc:title></dc:title>
      </cc:Work>
    </rdf:RDF>
  </metadata>
  <g
     inkscape:label="Layer 1"
     inkscape:groupmode="layer"
     id="layer1">
    <g
       id="g898"
       transform="matrix(2.2393639,0,0,2.2393639,-10.484431,-6.073107)"
       style="fill:#d45500">
      <g
         id="g2102"
         style="fill:#d45500">
        <g
           style="fill:#d45500;fill-opacity:1"
           inkscape:export-ydpi="25.4"
           inkscape:export-xdpi="25.4"
           transform="matrix(0.46051165,0,0,0.46051165,28.209543,17.939595)"
           id="g1287-9-7">
          <text
             id="text3240-2-6"
             y="52.343407"
             x="-34.540787"
             style="font-style:normal;font-variant:normal;font-weight:normal;font-stretch:normal;font-size:0.37249774px;line-height:125%;font-family:sans-serif;-inkscape-font-specification:'sans-serif, Normal';font-variant-ligatures:normal;font-variant-caps:normal;font-variant-numeric:normal;font-feature-settings:normal;text-align:start;letter-spacing:0px;word-spacing:0px;writing-mode:lr-tb;text-anchor:start;fill:#d45500;fill-opacity:1;stroke:none;stroke-width:0.02793733px;stroke-linecap:butt;stroke-linejoin:miter;stroke-opacity:1"
             xml:space="preserve"><tspan
               style="fill:#d45500;fill-opacity:1;stroke-width:0.02793733px"
               y="52.343407"
               x="-34.540787"
               id="tspan3238-0-5"
               sodipodi:role="line">C</tspan></text>
        </g>
        <path
           transform="matrix(1.7934848,-0.0336056,0.0336056,1.7934848,-129.85856,-41.503844)"
           clip-path="url(#clipPath1696-5-6-5)"
           inkscape:connector-curvature="0"
           id="path1471-6-7-69"
           d="m 80.513502,47.1151 -0.394589,0.02278 0.03639,-0.222838 0.03639,-0.222837 0.443506,-3.612059 0.443506,-3.612062 -1.372188,-2.262027 -1.372186,-2.262024 0.01906,-0.0087 0.01906,-0.0088 4.214595,0.164507 4.214594,0.164505 0.0307,-0.02916 0.0307,-0.02916 -0.24232,-0.431165 -0.24232,-0.431168 -0.0786,4.22e-4 -0.0786,4.22e-4 -1.20088,0.197973 -1.20087,0.197973 2.8e-4,-0.0114 2.8e-4,-0.0114 -0.18798,-0.688788 -0.18799,-0.688787 0.0296,-0.02811 0.0296,-0.02811 2.07321,-0.56753 2.07322,-0.567529 0.0842,0.09305 0.0842,0.09304 0.94626,1.479032 0.94626,1.479031 0.0235,0.04034 0.0235,0.04034 -1.088,1.354686 -1.088,1.354684 -0.67208,0.837164 -0.67207,0.837164 0.34655,3.608922 0.34655,3.608923 -0.0294,0.02472 -0.0294,0.02472 -2.98199,0.03827 -2.981991,0.03826 -0.394591,0.02278 z m -2.171168,-12.636312 -0.05297,-0.0013 -0.03296,-0.122137 -0.03296,-0.122138 -0.315328,-1.567794 -0.315331,-1.567794 -0.02724,-0.108015 -0.02725,-0.108037 0.820133,-0.210679 0.82013,-0.210677 0.06225,-0.0063 0.06225,-0.0063 0.38881,1.726582 0.388805,1.726585 -0.05055,0.02949 -0.05056,0.02949 -0.792161,0.260281 -0.792159,0.260281 z m 2.328313,-0.634516 -0.02182,-5.56e-4 -0.02766,-0.08735 -0.02766,-0.08735 -0.5397,-2.162726 -0.539698,-2.162727 -0.02316,-0.07399 -0.02316,-0.07399 0.99226,-0.404188 0.992257,-0.404187 0.06784,0.0017 0.06784,0.0017 0.593149,2.340326 0.593149,2.340327 -0.06444,0.05976 -0.06444,0.05977 -0.976415,0.326955 -0.976413,0.326954 z m 3.573533,-1.269193 -0.939327,0.287874 -0.02653,-0.08336 -0.02653,-0.08336 -0.53722,-2.157553 -0.53722,-2.157551 0.0013,-0.05101 0.0013,-0.05102 0.934253,-0.286322 0.934254,-0.286312 0.41558,1.683495 0.41557,1.683496 0.15192,0.606888 0.15191,0.606887 z m 2.31651,-0.683781 -0.87298,0.26474 -0.0234,-0.04644 -0.0234,-0.04644 -0.42765,-1.694218 -0.42765,-1.694219 0.0377,-0.03585 0.0377,-0.03585 0.85185,-0.292229 0.85184,-0.292228 0.0323,0.03402 0.0324,0.03402 0.40314,1.698938 0.40314,1.698935 -0.001,0.07099 -0.001,0.07099 -0.87298,0.26474 z"
           style="fill:#d45500;fill-opacity:1;stroke:#ffffff;stroke-width:0.21117981" />
        <g
           style="fill:#d45500;fill-opacity:1;stroke:#ffffff;stroke-width:0.15431271"
           transform="matrix(-2.1823253,-1.1241595,1.1241595,-2.1823253,206.69869,244.81877)"
           id="g1622-5-3">
          <path
             style="color:#000000;display:inline;overflow:visible;visibility:visible;opacity:1;fill:#d45500;fill-opacity:1;fill-rule:nonzero;stroke:#ffffff;stroke-width:0.15431271;marker:none;enable-background:accumulate"
             d="m 111.57148,45.054959 c -1.2701,1.226354 -2.50025,2.495189 -3.74782,3.745035 -1.24366,1.264927 -2.50293,2.515505 -3.725,3.801206 0.007,0.105618 0.16561,0.03096 0.23398,0.02773 0.12835,-0.02924 0.36811,-0.105653 0.40314,0.08604 0.058,0.180118 -0.0591,0.365255 -0.0133,0.540112 0.0825,0.105254 0.17015,-0.09647 0.24005,-0.131073 2.42158,-2.447986 4.84886,-4.890832 7.26524,-7.344174 -0.0818,-0.227756 -0.29622,-0.40059 -0.46052,-0.581395 -0.0618,-0.04176 -0.11418,-0.145163 -0.19578,-0.143475 z"
             id="path1595-9-7"
             inkscape:connector-curvature="0" />
          <path
             style="color:#000000;display:inline;overflow:visible;visibility:visible;opacity:1;fill:#d45500;fill-opacity:1;fill-rule:nonzero;stroke:#ffffff;stroke-width:0.15431271;marker:none;enable-background:accumulate"
             d="m 103.89378,52.08479 c -0.12763,0.123282 -0.18016,0.324607 -0.27748,0.476734 -0.22558,0.452761 -0.47694,0.897425 -0.67195,1.362864 0.0783,0.101046 0.24251,0.117521 0.29621,0.252777 0.0262,0.140189 0.10183,0.184333 0.22734,0.08903 0.59341,-0.277566 1.19584,-0.544876 1.77167,-0.854413 0.0371,-0.107425 -0.14151,-0.05692 -0.1927,-0.04205 -0.16726,0.038 -0.32247,0.124933 -0.47706,0.187074 0.068,-0.289065 0.18681,-0.596152 0.13069,-0.89552 -0.14081,-0.139139 -0.36131,-0.01247 -0.52006,0.02459 -0.10886,0.0313 -0.25501,0.106045 -0.34117,0.114308 0.0955,-0.210077 0.16794,-0.465424 0.10163,-0.692074 -0.0103,-0.01524 -0.0285,-0.02542 -0.0471,-0.02331 z"
             id="path1603-2-4"
             inkscape:connector-curvature="0" />
          <path
             style="color:#000000;display:inline;overflow:visible;visibility:visible;opacity:1;fill:#d45500;fill-opacity:1;fill-rule:nonzero;stroke:#ffffff;stroke-width:0.15431271;marker:none;enable-background:accumulate"
             d="m 112.24228,45.861018 c -1.56836,1.532108 -3.10013,3.102577 -4.64632,4.657499 -0.90197,0.919437 -1.81791,1.826336 -2.70337,2.761309 -0.006,0.112733 0.14756,0.02356 0.20708,0.03258 0.13029,-0.01126 0.27952,0.02522 0.35203,-0.117323 2.28848,-2.344866 4.58554,-4.681785 6.86819,-7.03206 0.0803,-0.08841 0.009,-0.21887 -0.0464,-0.299905 -0.003,0.04355 -0.0225,-0.01072 -0.0312,-0.0021 z"
             id="path1605-2-5"
             inkscape:connector-curvature="0" />
          <path
             style="color:#000000;display:inline;overflow:visible;visibility:visible;opacity:1;fill:#d45500;fill-opacity:1;fill-rule:nonzero;stroke:#ffffff;stroke-width:0.15431271;marker:none;enable-background:accumulate"
             d="m 111.07756,44.769992 c -0.34828,0.27335 -0.63037,0.628009 -0.95229,0.932954 -1.53632,1.54321 -3.03686,3.119021 -4.57066,4.664986 -0.50526,0.532813 -1.04764,1.033268 -1.52342,1.592509 -0.0682,0.116499 0.02,0.255624 -0.01,0.383462 -0.002,0.0518 -0.008,0.202138 0.0783,0.135044 2.38324,-2.368759 4.74218,-4.762133 7.1108,-7.145523 0.0798,-0.112864 0.26756,-0.219171 0.23117,-0.376687 -0.0903,-0.09037 -0.24256,-0.150965 -0.36439,-0.186745 z"
             id="path1607-8-2"
             inkscape:connector-curvature="0" />
          <path
             style="color:#000000;display:inline;overflow:visible;visibility:visible;opacity:1;fill:#d45500;fill-opacity:1;fill-rule:nonzero;stroke:#ffffff;stroke-width:0.15431271;marker:none;enable-background:accumulate"
             d="m 111.87838,43.957315 c -0.19103,0.05275 -0.29243,0.262723 -0.43926,0.382596 -0.0948,0.121905 -0.24594,0.219739 -0.30738,0.358922 0.0939,0.106338 0.2595,0.127688 0.36285,0.230453 0.38206,0.285055 0.70916,0.648341 0.93157,1.070742 0.10709,0.01185 0.17394,-0.146782 0.26159,-0.200578 0.15655,-0.186809 0.40894,-0.328733 0.46592,-0.578694 -0.0617,-0.367935 -0.33929,-0.662939 -0.60719,-0.905332 -0.19416,-0.156781 -0.41179,-0.329666 -0.6681,-0.358109 z"
             id="path1609-9-5"
             inkscape:connector-curvature="0" />
          <path
             style="color:#000000;display:inline;overflow:visible;visibility:visible;opacity:1;fill:#d45500;fill-opacity:1;fill-rule:nonzero;stroke:#ffffff;stroke-width:0.15431271;marker:none;enable-background:accumulate"
             d="m 112.78487,43.001772 c -0.27368,0.292406 -0.5946,0.551826 -0.83263,0.872536 0.074,0.11038 0.24969,0.10172 0.35069,0.189158 0.40049,0.251064 0.74195,0.611129 0.91033,1.058076 0.0684,0.11359 0.1629,-0.06863 0.22452,-0.104313 0.22973,-0.230801 0.47789,-0.453383 0.68648,-0.698662 -0.0327,-0.473904 -0.41476,-0.816915 -0.76102,-1.094665 -0.1686,-0.121464 -0.37165,-0.21485 -0.57837,-0.22213 z"
             id="path1611-7-4"
             inkscape:connector-curvature="0" />
          <path
             style="color:#000000;display:inline;overflow:visible;visibility:visible;opacity:1;fill:#d45500;fill-opacity:1;fill-rule:nonzero;stroke:#ffffff;stroke-width:0.15431271;marker:none;enable-background:accumulate"
             d="m 102.91536,54.023658 c -0.10831,0.0511 -0.11265,0.220369 -0.182,0.311587 -0.0259,0.09654 -0.12661,0.200853 -0.0968,0.300511 0.20912,-0.05183 0.41812,-0.168451 0.60239,-0.288715 0.0319,-0.125297 -0.12906,-0.215529 -0.21507,-0.283807 -0.0331,-0.01916 -0.069,-0.04038 -0.10853,-0.03958 z"
             id="path1613-3-7"
             inkscape:connector-curvature="0" />
        </g>
        <path
           transform="matrix(1.7934848,-0.0336056,0.0336056,1.7934848,-104.31103,-49.88617)"
           clip-path="url(#clipPath1713-5-8-1)"
           inkscape:connector-curvature="0"
           id="path1471-61-4"
           d="m 66.750328,44.085656 -1.514596,-2.170895 7.237535,-2.041644 0.111822,-0.421457 -2.541004,0.774717 -0.506086,-1.810986 4.17511,-1.298698 0.722794,1.306027 0.94626,1.479031 0.02352,0.04034 0.02352,0.04034 -1.087998,1.354686 -1.087998,1.354684 -0.672076,0.837164 -0.672073,0.837164 1.212527,12.633841 -7.78779,-0.08538 z m -2.736371,-4.989296 -0.05297,-0.0013 -0.03296,-0.122137 -0.03296,-0.122138 -0.315328,-1.567794 -0.315331,-1.567794 -0.02724,-0.108015 -0.02725,-0.108037 0.820133,-0.210679 0.82013,-0.210677 0.06225,-0.0063 0.06225,-0.0063 0.38881,1.726582 0.388805,1.726585 -0.05055,0.02949 -0.05056,0.02949 -0.792161,0.260281 -0.792159,0.260281 z m 2.328313,-0.634516 -0.02182,-5.56e-4 -0.02766,-0.08735 -0.02766,-0.08735 -0.5397,-2.162726 -0.539698,-2.162727 -0.02316,-0.07399 -0.02316,-0.07399 0.99226,-0.404188 0.992257,-0.404187 0.06784,0.0017 0.06784,0.0017 0.593149,2.340326 0.593148,2.340327 -0.06444,0.05976 -0.06444,0.05977 -0.976415,0.326955 -0.976414,0.326954 z m 3.573529,-1.269193 -0.939323,0.287874 -0.02653,-0.08336 -0.02653,-0.08336 -0.53722,-2.157553 -0.53722,-2.157551 0.0013,-0.05101 0.0013,-0.05102 0.934253,-0.286322 0.934257,-0.286312 0.415577,1.683495 0.415575,1.683496 0.151915,0.606888 0.151916,0.606887 z m 2.316516,-0.683781 -0.87298,0.26474 -0.02336,-0.04644 -0.02336,-0.04644 -0.427652,-1.694218 -0.427651,-1.694219 0.0377,-0.03585 0.0377,-0.03585 0.851849,-0.292229 0.851845,-0.292228 0.03235,0.03402 0.03235,0.03402 0.403136,1.698938 0.403138,1.698935 -0.0011,0.07099 -0.0011,0.07099 -0.872978,0.26474 z"
           style="fill:#d45500;fill-opacity:1;stroke:#ffffff;stroke-width:0.21117981"
           sodipodi:nodetypes="ccccccccccccccccccccccccccccccccccccccccccccccccccccccccccccccccccccccccccccccccccccccccc" />
      </g>
      <text
         xml:space="preserve"
         style="font-style:normal;font-variant:normal;font-weight:normal;font-stretch:normal;font-size:13.17299652px;line-height:125%;font-family:sans-serif;-inkscape-font-specification:'sans-serif, Normal';font-variant-ligatures:normal;font-variant-caps:normal;font-variant-numeric:normal;font-feature-settings:normal;text-align:start;letter-spacing:0px;word-spacing:0px;writing-mode:lr-tb;text-anchor:start;fill:#d45500;fill-opacity:1;stroke:none;stroke-width:0.9879747px;stroke-linecap:butt;stroke-linejoin:miter;stroke-opacity:1"
         x="47.857414"
         y="19.855736"
         id="text1227-4"><tspan
           sodipodi:role="line"
           x="47.857414"
           y="19.855736"
           style="font-style:normal;font-variant:normal;font-weight:normal;font-stretch:normal;line-height:0.71003783px;font-family:'Third Rail - Demo';-inkscape-font-specification:'Third Rail - Demo';fill:#d45500;stroke:none;stroke-width:0.9879747px"
           id="tspan317-30"><tspan
             dy="-0.0049702651"
             id="tspan323-78"
             style="font-style:normal;font-variant:normal;font-weight:normal;font-stretch:normal;line-height:0.71003783px;font-family:'Third Rail - Demo';-inkscape-font-specification:'Third Rail - Demo';fill:#d45500;stroke:none;stroke-width:0.9879747px">Curso</tspan></tspan></text>
      <text
         xml:space="preserve"
         style="font-style:normal;font-variant:normal;font-weight:normal;font-stretch:normal;font-size:13.17299652px;line-height:125%;font-family:sans-serif;-inkscape-font-specification:'sans-serif, Normal';font-variant-ligatures:normal;font-variant-caps:normal;font-variant-numeric:normal;font-feature-settings:normal;text-align:start;letter-spacing:0px;word-spacing:0px;writing-mode:lr-tb;text-anchor:start;fill:#d45500;fill-opacity:1;stroke:none;stroke-width:0.9879747px;stroke-linecap:butt;stroke-linejoin:miter;stroke-opacity:1"
         x="34.310986"
         y="48.357559"
         id="text1227-3-6"><tspan
           sodipodi:role="line"
           x="34.310986"
           y="48.357559"
           style="font-style:normal;font-variant:normal;font-weight:normal;font-stretch:normal;line-height:0.71003783px;font-family:'Third Rail - Demo';-inkscape-font-specification:'Third Rail - Demo';fill:#d45500;stroke:none;stroke-width:0.9879747px"
           id="tspan317-6-8">Defensoria<tspan
   id="tspan323-7-8"
   style="font-style:normal;font-variant:normal;font-weight:normal;font-stretch:normal;line-height:0.71003783px;font-family:'Third Rail - Demo';-inkscape-font-specification:'Third Rail - Demo';fill:#d45500;stroke:none;stroke-width:0.9879747px" /></tspan></text>
      <text
         xml:space="preserve"
         style="font-style:normal;font-variant:normal;font-weight:normal;font-stretch:normal;font-size:13.17299652px;line-height:125%;font-family:sans-serif;-inkscape-font-specification:'sans-serif, Normal';font-variant-ligatures:normal;font-variant-caps:normal;font-variant-numeric:normal;font-feature-settings:normal;text-align:start;letter-spacing:0px;word-spacing:0px;writing-mode:lr-tb;text-anchor:start;fill:#d45500;fill-opacity:1;stroke:none;stroke-width:0.9879747px;stroke-linecap:butt;stroke-linejoin:miter;stroke-opacity:1"
         x="41.939919"
         y="33.936676"
         id="text1227-5-4"><tspan
           sodipodi:role="line"
           x="41.939919"
           y="33.936676"
           style="font-style:normal;font-variant:normal;font-weight:normal;font-stretch:normal;line-height:0.71003783px;font-family:'Third Rail - Demo';-inkscape-font-specification:'Third Rail - Demo';fill:#d45500;stroke:none;stroke-width:0.9879747px"
           id="tspan317-3-3">Popular</tspan></text>
    </g>
  </g>
</svg>
